<svg width="141" height="39" fill="none" xmlns="http://www.w3.org/2000/svg"><path d="M69.903 11.488 52.237 29.505h5.306l8.83-9.006v9.006l8.852-9.06v9.06h3.535V11.472l-8.857 9.033v-9.017Z" fill="#fff"/><path fill-rule="evenodd" clip-rule="evenodd" d="M81.222 16.872c1.44-3.54 4.828-5.846 8.585-5.844A9.19 9.19 0 0 1 96.37 13.8a9.563 9.563 0 0 1 2.72 6.694c.001 3.832-2.26 7.288-5.732 8.755-3.47 1.468-7.467.658-10.124-2.052-2.656-2.71-3.45-6.785-2.012-10.325Zm2.838 3.622c0 3.237 2.573 5.861 5.747 5.861s5.747-2.624 5.747-5.86c0-3.238-2.573-5.862-5.747-5.862s-5.747 2.624-5.747 5.861Zm40.892-5.866h.66l3.099-3.156h-4.2c-4.272 0-7.735 3.532-7.735 7.889v10.144h3.519V19.36c0-2.614 2.078-4.733 4.642-4.733m-17.002 14.878a7.002 7.002 0 0 1-5.003-2.11 7.285 7.285 0 0 1-2.073-5.1V11.45h3.536v10.843c.003 1.992 1.587 3.606 3.54 3.606h3.094V11.472h3.536v18.033h-6.63Zm23.758-7.889h5.412V25.9h-5.412c-1.032-.168-1.791-1.075-1.791-2.141s.759-1.974 1.791-2.142Zm.532-6.988h-3.955l3.094-3.156h1.547c4.273 0 7.737 3.531 7.74 7.889v10.144h-9.192c-1.974.063-3.826-.976-4.832-2.71a5.618 5.618 0 0 1 0-5.624c1.006-1.735 2.858-2.773 4.832-2.71h5.519c-.515-2.242-2.474-3.829-4.732-3.833h-.021Z" fill="#fff"/><path d="M0 25.818v11.066l26.523-20.288V5.53L0 25.818Z" fill="#FFBF3C"/><path d="m38.575 36.884 9.643-7.379V13.842l-9.644 7.379v15.663Z" fill="#254CAF"/><path d="m26.523 16.596-8.442 6.457v13.83l8.442-6.44V16.596Z" fill="#EBA900"/><path d="M26.523 30.443V16.596L48.218 0v13.842L26.523 30.443Z" fill="#0072C3"/></svg>